# xmcd
#
# Track frame offsets:
#	150
#	13207
#	27805
#	40712
#	56925
#	68710
#	83327
#	98690
#	111480
#	125750
#
# Disc length: 1882 seconds
#
# Revision: 1
# Processed by: cddbd v1.5.2PL0 Copyright (c) Steve Scherf et al.
# Submitted via: audiograbber 1.83.01
#
DISCID=7f07580a
DTITLE=Juice Newton and Silver Spur - Juice Newton and Silver Spur
DYEAR=2009
DGENRE=Oldies
TTITLE0=Catwillow River
TTITLE1=Just Remember Who Your Friends Are
TTITLE2=Love Is a Word
TTITLE3=The Sweetest Thing (I've Ever Known)
TTITLE4=Roll On, Truckers
TTITLE5=Won't You Stay (Just A Little Bit Longer) 
TTITLE6=It's High Time
TTITLE7=You Please Me
TTITLE8=The Shelter Of Your Love
TTITLE9=Stand By Me, Jesus
EXTD=
EXTT0=
EXTT1=
EXTT2=
EXTT3=
EXTT4=
EXTT5=
EXTT6=
EXTT7=
EXTT8=
EXTT9=
PLAYORDER=
